<svg xmlns="http://www.w3.org/2000/svg" viewBox="0 0 600 600">
<line x1="370.2" y1="481.9" x2="422.2" y2="452" stroke="black" />
<circle cx="370.2" cy="481.9" r="2" fill="none" stroke="#600" stroke-width="1.3" />
<line x1="370.2" y1="481.9" x2="372" y2="487" stroke="#600" stroke-width="1.3" />
<text x="376" y="496" font-size="9" fill="#600" text-anchor="middle" alignment-baseline="middle">2</text>
<text x="406" y="484" font-size="7" fill="#0" text-anchor="middle" alignment-baseline="middle">60cm</text>

<line x1="422.2" y1="452" x2="462.4" y2="407.9" stroke="black" />
<circle cx="422.2" cy="452" r="2" fill="none" stroke="#600" stroke-width="1.3" />
<line x1="422.2" y1="452" x2="425" y2="456" stroke="#600" stroke-width="1.3" />
<text x="432" y="464" font-size="9" fill="#600" text-anchor="middle" alignment-baseline="middle">3</text>
<text x="457" y="443" font-size="7" fill="#0" text-anchor="middle" alignment-baseline="middle">59.7cm</text>

<line x1="462.4" y1="407.9" x2="489.5" y2="254.1" stroke="black" />
<circle cx="462.4" cy="407.9" r="2" fill="none" stroke="#600" stroke-width="1.3" />
<line x1="462.4" y1="407.9" x2="467" y2="411" stroke="#600" stroke-width="1.3" />
<text x="475" y="416" font-size="9" fill="#600" text-anchor="middle" alignment-baseline="middle">4</text>
<text x="494" y="334" font-size="7" fill="#0" text-anchor="middle" alignment-baseline="middle">156.2cm</text>

<line x1="489.5" y1="254.1" x2="466.3" y2="198.1" stroke="black" />
<circle cx="489.5" cy="254.1" r="2" fill="none" stroke="#600" stroke-width="1.3" />
<line x1="489.5" y1="254.1" x2="494" y2="253" stroke="#600" stroke-width="1.3" />
<text x="504" y="251" font-size="9" fill="#600" text-anchor="middle" alignment-baseline="middle">5</text>
<text x="496" y="219" font-size="7" fill="#0" text-anchor="middle" alignment-baseline="middle">60.6cm</text>

<line x1="466.3" y1="198.1" x2="441" y2="165.3" stroke="black" />
<circle cx="466.3" cy="198.1" r="2" fill="none" stroke="#600" stroke-width="1.3" />
<line x1="466.3" y1="198.1" x2="471" y2="195" stroke="#600" stroke-width="1.3" />
<text x="479" y="190" font-size="9" fill="#600" text-anchor="middle" alignment-baseline="middle">6</text>
<text x="469" y="170" font-size="7" fill="#0" text-anchor="middle" alignment-baseline="middle">41.4cm</text>

<line x1="441" y1="165.3" x2="395.7" y2="130.1" stroke="black" />
<circle cx="441" cy="165.3" r="2" fill="none" stroke="#600" stroke-width="1.3" />
<line x1="441" y1="165.3" x2="445" y2="162" stroke="#600" stroke-width="1.3" />
<text x="452" y="155" font-size="9" fill="#600" text-anchor="middle" alignment-baseline="middle">7</text>
<text x="431" y="132" font-size="7" fill="#0" text-anchor="middle" alignment-baseline="middle">57.4cm</text>

<line x1="395.7" y1="130.1" x2="342.5" y2="109.7" stroke="black" />
<circle cx="395.7" cy="130.1" r="2" fill="none" stroke="#600" stroke-width="1.3" />
<line x1="395.7" y1="130.1" x2="398" y2="126" stroke="#600" stroke-width="1.3" />
<text x="403" y="117" font-size="9" fill="#600" text-anchor="middle" alignment-baseline="middle">8</text>
<text x="376" y="101" font-size="7" fill="#0" text-anchor="middle" alignment-baseline="middle">57cm</text>

<line x1="342.5" y1="109.7" x2="281.6" y2="105.9" stroke="black" />
<circle cx="342.5" cy="109.7" r="2" fill="none" stroke="#600" stroke-width="1.3" />
<line x1="342.5" y1="109.7" x2="344" y2="105" stroke="#600" stroke-width="1.3" />
<text x="346" y="95" font-size="9" fill="#600" text-anchor="middle" alignment-baseline="middle">9</text>
<text x="313" y="88" font-size="7" fill="#0" text-anchor="middle" alignment-baseline="middle">61cm</text>

<line x1="281.6" y1="105.9" x2="219.4" y2="122.4" stroke="black" />
<circle cx="281.6" cy="105.9" r="2" fill="none" stroke="#600" stroke-width="1.3" />
<line x1="281.6" y1="105.9" x2="281" y2="101" stroke="#600" stroke-width="1.3" />
<text x="280" y="91" font-size="9" fill="#600" text-anchor="middle" alignment-baseline="middle">10</text>
<text x="245" y="95" font-size="7" fill="#0" text-anchor="middle" alignment-baseline="middle">64.4cm</text>

<line x1="219.4" y1="122.4" x2="169.8" y2="154.9" stroke="black" />
<circle cx="219.4" cy="122.4" r="2" fill="none" stroke="#600" stroke-width="1.3" />
<line x1="219.4" y1="122.4" x2="217" y2="118" stroke="#600" stroke-width="1.3" />
<text x="213" y="109" font-size="9" fill="#600" text-anchor="middle" alignment-baseline="middle">11</text>
<text x="184" y="122" font-size="7" fill="#0" text-anchor="middle" alignment-baseline="middle">59.3cm</text>

<line x1="169.8" y1="154.9" x2="129.1" y2="206.1" stroke="black" />
<circle cx="169.8" cy="154.9" r="2" fill="none" stroke="#600" stroke-width="1.3" />
<line x1="169.8" y1="154.9" x2="166" y2="151" stroke="#600" stroke-width="1.3" />
<text x="160" y="144" font-size="9" fill="#600" text-anchor="middle" alignment-baseline="middle">12</text>
<text x="134" y="168" font-size="7" fill="#0" text-anchor="middle" alignment-baseline="middle">65.4cm</text>

<line x1="129.1" y1="206.1" x2="107.9" y2="266.5" stroke="black" />
<circle cx="129.1" cy="206.1" r="2" fill="none" stroke="#600" stroke-width="1.3" />
<line x1="129.1" y1="206.1" x2="125" y2="204" stroke="#600" stroke-width="1.3" />
<text x="116" y="199" font-size="9" fill="#600" text-anchor="middle" alignment-baseline="middle">13</text>
<text x="100" y="230" font-size="7" fill="#0" text-anchor="middle" alignment-baseline="middle">64cm</text>

<line x1="107.9" y1="266.5" x2="107.3" y2="330.2" stroke="black" />
<circle cx="107.9" cy="266.5" r="2" fill="none" stroke="#600" stroke-width="1.3" />
<line x1="107.9" y1="266.5" x2="103" y2="266" stroke="#600" stroke-width="1.3" />
<text x="93" y="264" font-size="9" fill="#600" text-anchor="middle" alignment-baseline="middle">14</text>
<text x="88" y="298" font-size="7" fill="#0" text-anchor="middle" alignment-baseline="middle">63.7cm</text>

<line x1="107.3" y1="330.2" x2="129.9" y2="395.4" stroke="black" />
<circle cx="107.3" cy="330.2" r="2" fill="none" stroke="#600" stroke-width="1.3" />
<line x1="107.3" y1="330.2" x2="102" y2="331" stroke="#600" stroke-width="1.3" />
<text x="92" y="333" font-size="9" fill="#600" text-anchor="middle" alignment-baseline="middle">15</text>
<text x="100" y="369" font-size="7" fill="#0" text-anchor="middle" alignment-baseline="middle">69cm</text>

<line x1="129.9" y1="395.4" x2="173.9" y2="448.7" stroke="black" />
<circle cx="129.9" cy="395.4" r="2" fill="none" stroke="#600" stroke-width="1.3" />
<line x1="129.9" y1="395.4" x2="126" y2="398" stroke="#600" stroke-width="1.3" />
<text x="117" y="403" font-size="9" fill="#600" text-anchor="middle" alignment-baseline="middle">16</text>
<text x="137" y="435" font-size="7" fill="#0" text-anchor="middle" alignment-baseline="middle">69.1cm</text>

<line x1="173.9" y1="448.7" x2="221.6" y2="478.6" stroke="black" />
<circle cx="173.9" cy="448.7" r="2" fill="none" stroke="#600" stroke-width="1.3" />
<line x1="173.9" y1="448.7" x2="171" y2="453" stroke="#600" stroke-width="1.3" />
<text x="164" y="460" font-size="9" fill="#600" text-anchor="middle" alignment-baseline="middle">17</text>
<text x="187" y="480" font-size="7" fill="#0" text-anchor="middle" alignment-baseline="middle">56.3cm</text>

<line x1="221.6" y1="478.6" x2="298.3" y2="495" stroke="black" />
<circle cx="221.6" cy="478.6" r="2" fill="none" stroke="#600" stroke-width="1.3" />
<line x1="221.6" y1="478.6" x2="220" y2="483" stroke="#600" stroke-width="1.3" />
<text x="216" y="492" font-size="9" fill="#600" text-anchor="middle" alignment-baseline="middle">18</text>
<text x="256" y="506" font-size="7" fill="#0" text-anchor="middle" alignment-baseline="middle">78.4cm</text>

<line x1="298.3" y1="495" x2="370.2" y2="481.9" stroke="black" />
<circle cx="298.3" cy="495" r="2" fill="none" stroke="#600" stroke-width="1.3" />
<line x1="298.3" y1="495" x2="298" y2="500" stroke="#600" stroke-width="1.3" />
<text x="298" y="510" font-size="9" fill="#600" text-anchor="middle" alignment-baseline="middle">1</text>
<text x="338" y="508" font-size="7" fill="#0" text-anchor="middle" alignment-baseline="middle">73.1cm</text>

</svg>